Coordinates
version=1
nRows=52
nColumns=15
inDegrees=yes

Units are S.I. units (second, meters, Newtons, ...)
Angles are in degrees.

endheader
time	sacrum_pitch	sacrum_roll	sacrum_yaw	sacrum_x	sacrum_y	sacrum_z	sacroiliac_flx	hip_flx	hip_add	hip_int	knee_flx	ankle_flx	ankle_add	ankle_int
6.20000000	30.00000000	0.00000000	0.00000000	0.03863418	0.06654850	0.00000000	0.00000000	60.43505723	0.00000000	0.00000000	-91.21548475	24.90749286	0.00000000	0.00000000
6.20500000	30.00000000	0.00000000	0.00000000	0.03888130	0.06703191	0.00000000	0.00000000	60.79722983	0.00000000	0.00000000	-91.34426443	24.87877722	0.00000000	0.00000000
6.21000000	30.00000000	0.00000000	0.00000000	0.03976159	0.06812939	0.00000000	0.00000000	61.04889416	0.00000000	0.00000000	-91.40229515	24.98969892	0.00000000	0.00000000
6.21500000	30.00000000	0.00000000	0.00000000	0.04180361	0.07008648	0.00000000	0.00000000	60.85535409	0.00000000	0.00000000	-91.29334291	25.08850313	0.00000000	0.00000000
6.22000000	30.00000000	0.00000000	0.00000000	0.04544774	0.07283622	0.00000000	0.00000000	60.15948664	0.00000000	0.00000000	-90.92720743	24.83537233	0.00000000	0.00000000
6.22500000	30.00000000	0.00000000	0.00000000	0.05014227	0.07617870	0.00000000	0.00000000	59.09067776	0.00000000	0.00000000	-90.65340747	24.74878231	0.00000000	0.00000000
6.23000000	30.00000000	0.00000000	0.00000000	0.05550098	0.07981875	0.00000000	0.00000000	57.31101607	0.00000000	0.00000000	-90.49435786	24.68678966	0.00000000	0.00000000
6.23500000	30.00000000	0.00000000	0.00000000	0.06118392	0.08352228	0.00000000	0.00000000	55.50153601	0.00000000	0.00000000	-90.18575058	24.63021536	0.00000000	0.00000000
6.24000000	30.00000000	0.00000000	0.00000000	0.06690392	0.08726777	0.00000000	0.00000000	53.33314457	0.00000000	0.00000000	-90.07216231	24.80144167	0.00000000	0.00000000
6.24500000	30.00000000	0.00000000	0.00000000	0.07242622	0.09106423	0.00000000	0.00000000	50.92230089	0.00000000	0.00000000	-89.84800783	24.98193698	0.00000000	0.00000000
6.25000000	30.00000000	0.00000000	0.00000000	0.07768949	0.09498264	0.00000000	0.00000000	48.16817873	0.00000000	0.00000000	-89.49853087	25.13067709	0.00000000	0.00000000
6.25500000	30.00000000	0.00000000	0.00000000	0.08245049	0.09866363	0.00000000	0.00000000	45.47148662	0.00000000	0.00000000	-89.33733369	25.19047329	0.00000000	0.00000000
6.26000000	30.00000000	0.00000000	0.00000000	0.08625444	0.10168158	0.00000000	0.00000000	43.30315501	0.00000000	0.00000000	-89.24222444	25.59651694	0.00000000	0.00000000
6.26500000	30.00000000	0.00000000	0.00000000	0.08919392	0.10394911	0.00000000	0.00000000	41.51026684	0.00000000	0.00000000	-89.14758558	25.65152620	0.00000000	0.00000000
6.27000000	30.00000000	0.00000000	0.00000000	0.09175549	0.10576621	0.00000000	0.00000000	40.01728187	0.00000000	0.00000000	-89.01257519	25.74574706	0.00000000	0.00000000
6.27500000	30.00000000	0.00000000	0.00000000	0.09415173	0.10743178	0.00000000	0.00000000	38.65432655	0.00000000	0.00000000	-88.73573349	25.88751472	0.00000000	0.00000000
6.28000000	30.00000000	0.00000000	0.00000000	0.09637540	0.10898216	0.00000000	0.00000000	37.17193969	0.00000000	0.00000000	-88.67203364	26.07678080	0.00000000	0.00000000
6.28500000	30.00000000	0.00000000	0.00000000	0.09848000	0.11034606	0.00000000	0.00000000	35.86482388	0.00000000	0.00000000	-88.71018644	26.41975770	0.00000000	0.00000000
6.29000000	30.00000000	0.00000000	0.00000000	0.10050844	0.11150180	0.00000000	0.00000000	34.73670559	0.00000000	0.00000000	-88.74996095	26.75342040	0.00000000	0.00000000
6.29500000	30.00000000	0.00000000	0.00000000	0.10238229	0.11254177	0.00000000	0.00000000	33.64565483	0.00000000	0.00000000	-88.67156262	26.97823632	0.00000000	0.00000000
6.30000000	30.00000000	0.00000000	0.00000000	0.10403842	0.11329535	0.00000000	0.00000000	32.40932736	0.00000000	0.00000000	-88.61205961	27.10759308	0.00000000	0.00000000
6.30500000	30.00000000	0.00000000	0.00000000	0.10558968	0.11362227	0.00000000	0.00000000	31.65909543	0.00000000	0.00000000	-88.54804373	27.26413589	0.00000000	0.00000000
6.31000000	30.00000000	0.00000000	0.00000000	0.10706179	0.11382128	0.00000000	0.00000000	30.79529044	0.00000000	0.00000000	-88.46371631	27.47833007	0.00000000	0.00000000
6.31500000	30.00000000	0.00000000	0.00000000	0.10838815	0.11379238	0.00000000	0.00000000	30.05024607	0.00000000	0.00000000	-88.13273953	27.62190633	0.00000000	0.00000000
6.32000000	30.00000000	0.00000000	0.00000000	0.10961830	0.11325128	0.00000000	0.00000000	29.46620647	0.00000000	0.00000000	-88.00953653	27.82787945	0.00000000	0.00000000
6.32500000	30.00000000	0.00000000	0.00000000	0.11067898	0.11190514	0.00000000	0.00000000	29.34166736	0.00000000	0.00000000	-87.94695107	28.04713543	0.00000000	0.00000000
6.33000000	30.00000000	0.00000000	0.00000000	0.11169079	0.10954167	0.00000000	0.00000000	29.74246228	0.00000000	0.00000000	-87.67298685	28.11701305	0.00000000	0.00000000
6.33500000	30.00000000	0.00000000	0.00000000	0.11277972	0.10633656	0.00000000	0.00000000	30.43835677	0.00000000	0.00000000	-87.54138859	28.30284759	0.00000000	0.00000000
6.34000000	30.00000000	0.00000000	0.00000000	0.11403832	0.10265463	0.00000000	0.00000000	31.18153297	0.00000000	0.00000000	-87.46420892	28.53869770	0.00000000	0.00000000
6.34500000	30.00000000	0.00000000	0.00000000	0.11534603	0.09869232	0.00000000	0.00000000	32.20965198	0.00000000	0.00000000	-87.14494305	28.81094656	0.00000000	0.00000000
6.35000000	30.00000000	0.00000000	0.00000000	0.11665391	0.09474223	0.00000000	0.00000000	33.18315937	0.00000000	0.00000000	-86.92924529	29.05544399	0.00000000	0.00000000
6.35500000	30.00000000	0.00000000	0.00000000	0.11789620	0.09075968	0.00000000	0.00000000	34.18211488	0.00000000	0.00000000	-86.93911901	29.27652428	0.00000000	0.00000000
6.36000000	30.00000000	0.00000000	0.00000000	0.11915350	0.08705452	0.00000000	0.00000000	34.95785159	0.00000000	0.00000000	-86.93110084	29.52482417	0.00000000	0.00000000
6.36500000	30.00000000	0.00000000	0.00000000	0.12037986	0.08359423	0.00000000	0.00000000	35.70676363	0.00000000	0.00000000	-86.97477472	29.82234577	0.00000000	0.00000000
6.37000000	30.00000000	0.00000000	0.00000000	0.12147971	0.08040199	0.00000000	0.00000000	36.54107760	0.00000000	0.00000000	-86.87730147	30.13381476	0.00000000	0.00000000
6.37500000	30.00000000	0.00000000	0.00000000	0.12217460	0.07732607	0.00000000	0.00000000	37.27327108	0.00000000	0.00000000	-86.72469044	30.49333989	0.00000000	0.00000000
6.38000000	30.00000000	0.00000000	0.00000000	0.12255671	0.07455555	0.00000000	0.00000000	38.00004355	0.00000000	0.00000000	-86.71127671	30.74601253	0.00000000	0.00000000
6.38500000	30.00000000	0.00000000	0.00000000	0.12256342	0.07199125	0.00000000	0.00000000	38.88068878	0.00000000	0.00000000	-86.86019744	31.08066949	0.00000000	0.00000000
6.39000000	30.00000000	0.00000000	0.00000000	0.12217085	0.06955336	0.00000000	0.00000000	39.60453856	0.00000000	0.00000000	-86.85995635	31.23695828	0.00000000	0.00000000
6.39500000	30.00000000	0.00000000	0.00000000	0.12132348	0.06735292	0.00000000	0.00000000	40.64519790	0.00000000	0.00000000	-86.92616707	31.45983467	0.00000000	0.00000000
6.40000000	30.00000000	0.00000000	0.00000000	0.12021960	0.06552485	0.00000000	0.00000000	41.47583761	0.00000000	0.00000000	-86.98543971	31.62989280	0.00000000	0.00000000
6.40500000	30.00000000	0.00000000	0.00000000	0.11938056	0.06530635	0.00000000	0.00000000	41.81799325	0.00000000	0.00000000	-87.03109862	31.71272483	0.00000000	0.00000000
6.41000000	30.00000000	0.00000000	0.00000000	0.11871536	0.06503715	0.00000000	0.00000000	41.81500768	0.00000000	0.00000000	-86.92126882	31.82648884	0.00000000	0.00000000
6.41500000	30.00000000	0.00000000	0.00000000	0.11820312	0.06474808	0.00000000	0.00000000	41.89559219	0.00000000	0.00000000	-86.91002161	31.96018542	0.00000000	0.00000000
6.42000000	30.00000000	0.00000000	0.00000000	0.11778298	0.06456072	0.00000000	0.00000000	42.05997442	0.00000000	0.00000000	-86.64132100	32.02169052	0.00000000	0.00000000
6.42500000	30.00000000	0.00000000	0.00000000	0.11734205	0.06445664	0.00000000	0.00000000	42.17326892	0.00000000	0.00000000	-86.28016380	32.05295340	0.00000000	0.00000000
6.43000000	30.00000000	0.00000000	0.00000000	0.11688375	0.06436228	0.00000000	0.00000000	42.52492925	0.00000000	0.00000000	-85.98504305	32.18126612	0.00000000	0.00000000
6.43500000	30.00000000	0.00000000	0.00000000	0.11641618	0.06429165	0.00000000	0.00000000	42.72737952	0.00000000	0.00000000	-85.69328162	32.33322874	0.00000000	0.00000000
6.44000000	30.00000000	0.00000000	0.00000000	0.11597790	0.06424921	0.00000000	0.00000000	43.11342046	0.00000000	0.00000000	-85.42989736	32.51141842	0.00000000	0.00000000
6.44500000	30.00000000	0.00000000	0.00000000	0.11552561	0.06421367	0.00000000	0.00000000	43.32622573	0.00000000	0.00000000	-85.20701302	32.68379981	0.00000000	0.00000000
6.45000000	30.00000000	0.00000000	0.00000000	0.11509393	0.06416825	0.00000000	0.00000000	43.71528272	0.00000000	0.00000000	-84.99641115	32.78514444	0.00000000	0.00000000
6.45500000	30.00000000	0.00000000	0.00000000	0.11466557	0.06418973	0.00000000	0.00000000	43.92776572	0.00000000	0.00000000	-84.73837641	32.83578146	0.00000000	0.00000000
